<?xml version="1.0" encoding="UTF-8"?>
<svg xmlns="http://www.w3.org/2000/svg" viewBox="0 0 1920 805.09">
  <defs>
    <style>
      .cls-1 {
        isolation: isolate;
      }

      .cls-2 {
        fill: #08215b;
      }

      .cls-2, .cls-3, .cls-4, .cls-5, .cls-6, .cls-7 {
        stroke-width: 0px;
      }

      .cls-3 {
        fill: #001a56;
      }

      .cls-4 {
        fill: #919396;
      }

      .cls-4, .cls-5 {
        mix-blend-mode: overlay;
      }

      .cls-5 {
        fill: #a3a8ad;
      }

      .cls-6 {
        fill: #103b91;
      }

      .cls-7 {
        fill: #072e66;
      }
    </style>
  </defs>
  <g class="cls-1">
    <g id="Layer_2" data-name="Layer 2">
      <g id="Layer_1-2" data-name="Layer 1">
        <g>
          <path class="cls-3" d="m1920,280.39c-220.38-85.74-574.75-67.44-1060.71,33.31C456.14,397.28,164.86,369.68,0,335.91v469.18h1920V280.39Z"/>
          <path class="cls-7" d="m1920,168.9c-59.67-24.26-127.1-44.85-199.79-60.36-77.48-16.62-160.63-28.03-246.71-35.18-172.3-14.3-355.81-11.75-536.33-3.05-90.31,4.38-179.95,10.24-267.61,16.38-21.86,1.55-43.63,3.1-65.29,4.64-10.77.76-21.51,1.54-32.22,2.3-2.64.17-5.45.43-7.93.53l-7.15.31-14.25.63c-9.45.43-18.87.86-28.26,1.29-9.37.23-18.69.19-27.95.32-9.26.04-18.46.29-27.6.19-9.11-.24-18.18-.48-27.22-.72-72.08-2.11-139.9-9.6-201.42-22.01-61.55-12.3-117.14-28.26-165.54-46.78C41.6,18.54,20.02,9.34,0,0v404.64c58.46,8.45,120.1,13.9,183.74,15.82,89.07,2.84,181.87-2.36,274.72-14.9,11.58-1.61,23.21-3.23,34.88-4.86,11.61-1.78,23.14-3.94,34.75-5.92,11.58-2.06,23.23-3.99,34.81-6.19,11.49-2.42,23.02-4.85,34.59-7.28l17.32-3.68,8.67-1.84c2.8-.59,5.23-1.22,7.86-1.83,10.35-2.47,20.74-4.93,31.15-7.4,20.71-4.91,41.51-9.84,62.4-14.79,83.36-19.67,167.66-39.13,251.85-57.06,168.31-35.83,336.8-65.38,495.55-77.76,79.32-6.19,156.11-8.04,228.44-4.47,72.33,3.51,140.01,12.89,200.89,27.3,6.21,1.47,12.32,3.02,18.39,4.6v-75.48Z"/>
          <path class="cls-2" d="m1920,244.02c-61.07-22.67-130.18-41.17-204.66-54.15-76.19-13.36-157.75-21.45-242.14-25.27-168.91-7.63-348.67,1.66-526.13,17.15-88.78,7.77-177.09,17.03-263.67,26.56-21.61,2.4-43.14,4.79-64.56,7.17-10.68,1.2-21.33,2.39-31.95,3.58-5.41.65-10.49,1.1-15.45,1.55l-15.02,1.39c-9.98.93-19.93,1.86-29.84,2.79-9.92.72-19.82,1.17-29.66,1.78-9.85.53-19.64,1.25-29.39,1.63-9.75.22-19.46.45-29.13.68-77.28,1.55-151.34-2.77-219.75-12.79-68.42-9.89-131.43-24.24-187.2-41.91-10.76-3.41-21.19-6.94-31.45-10.5v200.74c60.94,12.03,126.61,20.55,195.37,24.81,82.18,5.23,168.74,3.2,256.4-5.67,10.94-1.15,21.93-2.3,32.97-3.47,10.99-1.31,21.94-2.99,32.96-4.49,11-1.57,22.07-3.01,33.1-4.73,10.97-1.92,21.97-3.84,33-5.77l16.55-2.91c5.58-.97,11.07-1.93,16.17-2.97,10.44-2.04,20.91-4.08,31.41-6.13,20.94-4.07,41.99-8.14,63.13-12.24,84.43-16.29,170.07-32.35,255.79-46.9,171.35-29.05,343.59-51.85,505.74-57.55,81-2.86,159.39-1.4,233.01,5.44,73.61,6.77,142.29,19.37,203.56,36.76,3.67,1.04,7.22,2.16,10.84,3.23v-37.81Z"/>
          <path class="cls-6" d="m1920,254.62c-61.84-21.73-131.9-38.97-207.34-50.45-75.48-11.56-156.18-17.84-239.63-19.81-167.05-3.97-344.74,9.05-520.52,28.26-87.94,9.63-175.51,20.76-261.5,32.15-21.48,2.86-42.88,5.72-64.17,8.56-21.27,2.89-42.53,5.79-62.89,8.03-10.27,1.21-20.51,2.41-30.71,3.61-10.22,1-20.45,1.73-30.61,2.6-10.17.79-20.28,1.78-30.37,2.41-10.1.49-20.17.96-30.19,1.44-80.13,3.57-157.63.99-229.83-7.71-72.2-8.57-139.29-22.02-199.11-39.24-4.44-1.28-8.77-2.6-13.13-3.91v90.17c62.02,14.4,129.92,25.02,201.77,30.89,78.4,6.55,161.52,6.27,246.32-.6,10.59-.89,21.23-1.79,31.91-2.69,10.65-1.05,21.28-2.47,31.98-3.7,10.68-1.31,21.43-2.48,32.15-3.92,10.68-1.65,21.39-3.3,32.13-4.95,21.73-3.21,42.59-6.85,63.67-10.5,21.07-3.59,42.26-7.21,63.52-10.85,85.03-14.42,171.4-28.62,257.96-41.3,173.03-25.32,347.34-44.4,511.35-46.44,81.93-1.03,161.19,2.27,235.52,10.89,74.32,8.56,143.53,22.92,205.03,41.97,2.27.7,4.45,1.45,6.69,2.17v-17.07Z"/>
          <path class="cls-4" d="m345.96,386.5c0,63.7-60.69,115.34-135.56,115.34s-135.56-51.64-135.56-115.34,60.69-115.34,135.56-115.34,135.56,51.64,135.56,115.34Z"/>
          <path class="cls-4" d="m210.4,618.11c0,27.15-25.87,49.17-57.78,49.17s-57.78-22.01-57.78-49.17,25.87-49.16,57.78-49.16,57.78,22.01,57.78,49.16Z"/>
          <g>
            <path class="cls-5" d="m1622.66,532.33c0,120.08-114.42,217.44-255.55,217.44s-255.56-97.36-255.56-217.44,114.41-217.45,255.56-217.45,255.55,97.35,255.55,217.45Z"/>
            <path class="cls-5" d="m1085.99,492.62c0,63.7-60.69,115.34-135.56,115.34s-135.56-51.64-135.56-115.34,60.69-115.34,135.56-115.34,135.56,51.64,135.56,115.34Z"/>
            <path class="cls-5" d="m1861.55,335.68c0,42.82-40.79,77.53-91.11,77.53s-91.11-34.71-91.11-77.53,40.79-77.52,91.11-77.52,91.11,34.71,91.11,77.52Z"/>
            <path class="cls-5" d="m568.21,599.45c0,42.82-40.79,77.53-91.11,77.53s-91.11-34.71-91.11-77.53,40.79-77.52,91.11-77.52,91.11,34.71,91.11,77.52Z"/>
            <path class="cls-5" d="m1671.55,486c0,42.82-40.79,77.53-91.11,77.53s-91.11-34.71-91.11-77.53,40.79-77.52,91.11-77.52,91.11,34.71,91.11,77.52Z"/>
            <ellipse class="cls-5" cx="515.99" cy="393.35" rx="57.78" ry="49.16"/>
            <path class="cls-5" d="m1824.88,616.46c0,27.15-25.87,49.16-57.77,49.16s-57.78-22.01-57.78-49.16,25.87-49.16,57.78-49.16,57.77,22.01,57.77,49.16Z"/>
            <ellipse class="cls-5" cx="712.66" cy="651.45" rx="47.78" ry="40.65"/>
          </g>
        </g>
      </g>
    </g>
  </g>
</svg>